<?xml version="1.0" standalone="no"?><!DOCTYPE svg PUBLIC "-//W3C//DTD SVG 1.1//EN" "http://www.w3.org/Graphics/SVG/1.1/DTD/svg11.dtd"><svg t="1659602571529" class="icon" viewBox="0 0 1024 1024" version="1.1" xmlns="http://www.w3.org/2000/svg" p-id="27585" xmlns:xlink="http://www.w3.org/1999/xlink" width="32" height="32"><defs><style type="text/css"></style></defs><path d="M266.24 245.76a81.92 81.92 0 0 1 81.92-81.92 40.96 40.96 0 1 0 0-81.92 163.84 163.84 0 0 0-163.84 163.84v122.88a81.92 81.92 0 0 1-81.92 81.92 40.96 40.96 0 1 0 0 81.92 81.92 81.92 0 0 1 81.92 81.92v122.88a163.84 163.84 0 0 0 163.84 163.84 40.96 40.96 0 1 0 0-81.92 81.92 81.92 0 0 1-81.92-81.92v-122.88a163.84 163.84 0 0 0-56.5248-122.88A163.84 163.84 0 0 0 266.24 368.64V245.76z m655.36 204.8a81.92 81.92 0 0 1-81.92-81.92V245.76a163.84 163.84 0 0 0-163.84-163.84 40.96 40.96 0 0 0 0 81.92 81.92 81.92 0 0 1 81.92 81.92v122.88a163.84 163.84 0 0 0 56.5248 122.88A163.84 163.84 0 0 0 757.76 614.4v122.88a81.92 81.92 0 0 1-81.92 81.92 40.96 40.96 0 0 0 0 81.92 163.84 163.84 0 0 0 163.84-163.84v-122.88a81.92 81.92 0 0 1 81.92-81.92 40.96 40.96 0 1 0 0-81.92z" fill="#39739d" p-id="27586"></path></svg>